<?xml version="1.0" standalone="no"?><!DOCTYPE svg PUBLIC "-//W3C//DTD SVG 1.1//EN" "http://www.w3.org/Graphics/SVG/1.1/DTD/svg11.dtd"><svg t="1697180165672" class="icon" viewBox="0 0 1024 1024" version="1.1" xmlns="http://www.w3.org/2000/svg" p-id="1040" xmlns:xlink="http://www.w3.org/1999/xlink" width="200" height="200"><path d="M964.096 963.072l-249.6-297.216c54.016-54.272 92.672-124.928 107.008-205.824 17.92-102.144-4.864-205.056-64.256-290.304-59.392-84.992-148.736-141.824-251.136-160C294.912-27.392 92.928 114.176 55.808 325.12c-17.92 102.144 4.864 205.056 64.256 290.304 6.656 9.472 13.824 18.432 21.248 27.648 29.44 35.072 64 64 102.912 86.016 28.672 16.64 59.648 29.696 92.672 38.144 11.264 2.816 23.04 5.632 34.56 7.68 12.032 2.048 23.296 3.584 34.56 4.608 92.672 7.68 182.016-17.92 254.208-68.096L909.824 1008.64c5.376 6.4 15.104 7.424 21.76 1.792l30.72-25.856c6.4-5.376 7.424-15.104 1.792-21.504zM383.744 705.28c-83.712-14.592-156.672-61.44-205.312-130.56-48.896-69.632-67.584-153.856-52.736-237.312C156.16 164.864 321.536 49.408 494.336 79.616c74.24 13.312 140.288 51.2 188.416 108.032 5.888 7.424 11.776 14.592 16.896 22.528 48.896 69.632 67.072 153.6 52.736 237.312-30.464 172.544-195.84 288.256-368.64 257.792z" p-id="1041" fill="#707070"></path></svg>